<svg id="Component_15_1" data-name="Component 15 – 1" xmlns="http://www.w3.org/2000/svg" width="35.649" height="33.622" viewBox="0 0 35.649 33.622">
  <g id="Group_402" data-name="Group 402">
    <g id="_360-degrees_5_" data-name="360-degrees (5)" transform="translate(0)">
      <path id="Path_118" data-name="Path 118" d="M34.654,32.714a1.169,1.169,0,0,1-1.035-1.16,1.3,1.3,0,0,1,.9-1.485,19.478,19.478,0,0,0,8.322-3.2c1.889-1.4,2.93-3.045,2.93-4.633a5.749,5.749,0,0,0-2.239-4.076,1.567,1.567,0,0,1-.268-1.847.914.914,0,0,1,1.452-.341,8.307,8.307,0,0,1,3.144,6.265c0,2.61-1.372,5.005-3.967,6.928A20.992,20.992,0,0,1,34.788,32.7a.876.876,0,0,1-.133.01Zm0,0" transform="translate(-12.214 -2.998)" fill="aqua"/>
      <path id="Path_119" data-name="Path 119" d="M17.57,30.683l-2.785-3.541a.9.9,0,0,0-1.477,0,1.6,1.6,0,0,0,0,1.878l.814,1.035a21.048,21.048,0,0,1-8.15-2.676C3.5,25.87,2.089,23.947,2.089,22.1c0-1.563,1.013-3.187,2.853-4.574a1.544,1.544,0,0,0,.366-1.819.931.931,0,0,0-1.431-.465C.673,17.661,0,20.309,0,22.1c0,2.947,1.8,5.67,5.067,7.668a23.182,23.182,0,0,0,9.39,2.991l-1.149,1.461a1.6,1.6,0,0,0,0,1.878.9.9,0,0,0,1.477,0l2.785-3.541a1.6,1.6,0,0,0,0-1.878Zm0,0" transform="translate(0 -2.87)" fill="aqua"/>
      <path id="Path_120" data-name="Path 120" d="M14.653,18.454v-.32c0-1.127-.543-1.346-1.27-1.346-.45,0-.6-.5-.6-1.009s.146-1.009.6-1.009c.5,0,1.032-.084,1.032-1.447,0-.976-.437-1.211-.979-1.211-.648,0-.979.2-.979.858,0,.572-.2.959-.966.959-.952,0-1.071-.252-1.071-1.06a2.84,2.84,0,0,1,3.016-3.011c1.68,0,2.95.774,2.95,3.045a3.275,3.275,0,0,1-1.019,2.759,2.464,2.464,0,0,1,1.349,2.473v.32c0,2.759-1.495,3.8-3.347,3.8a3.028,3.028,0,0,1-3.148-3.179c0-.757.251-.959.979-.959.847,0,1.058.236,1.058.875,0,.791.582.976,1.177.976.9,0,1.217-.421,1.217-1.514Zm0,0" transform="translate(-3.714 -1.878)" fill="aqua"/>
      <path id="Path_121" data-name="Path 121" d="M29.33,18.135v.151c0,2.893-1.416,3.97-3.241,3.97s-3.255-1.077-3.255-3.97V13.828c0-2.893,1.468-3.97,3.374-3.97a3.025,3.025,0,0,1,3.122,3.162c0,.808-.3,1.06-.966,1.06-.569,0-1.072-.185-1.072-.959a1.019,1.019,0,0,0-1.151-.976c-.781,0-1.244.522-1.244,1.682v1.514a1.871,1.871,0,0,1,1.654-.74c1.508,0,2.778.841,2.778,3.533Zm-4.432.337c0,1.161.45,1.665,1.191,1.665s1.177-.5,1.177-1.665V18.32c0-1.228-.437-1.7-1.191-1.7-.714,0-1.177.437-1.177,1.548Zm0,0" transform="translate(-8.298 -1.878)" fill="aqua"/>
      <path id="Path_122" data-name="Path 122" d="M35.553,18.286V13.828c0-2.893,1.415-3.97,3.241-3.97s3.254,1.077,3.254,3.97v4.458c0,2.893-1.429,3.97-3.254,3.97S35.553,21.179,35.553,18.286Zm4.432-4.458c0-1.161-.45-1.682-1.19-1.682s-1.177.522-1.177,1.682v4.458c0,1.161.437,1.682,1.177,1.682s1.19-.522,1.19-1.682Zm0,0" transform="translate(-12.92 -1.878)" fill="aqua"/>
      <path id="Path_123" data-name="Path 123" d="M47.906,7.03a3.344,3.344,0,0,1-3.133-3.515,3.154,3.154,0,1,1,6.266,0A3.344,3.344,0,0,1,47.906,7.03Zm0-4.686a1.115,1.115,0,0,0-1.044,1.172,1.051,1.051,0,1,0,2.089,0A1.115,1.115,0,0,0,47.906,2.343Zm0,0" transform="translate(-16.271)" fill="aqua"/>
    </g>
  </g>
</svg>
