<svg xmlns="http://www.w3.org/2000/svg" width="45.815" height="28.864" viewBox="0 0 45.815 28.864">
  <g id="Group_622" data-name="Group 622" transform="translate(-961.527 -608.697)">
    <g id="worldwide-shipping_1_" data-name="worldwide-shipping (1)" transform="translate(961.827 609)">
      <path id="Path_994" data-name="Path 994" d="M8.942,34.926A.94.94,0,0,1,8,33.984V7.609a.947.947,0,0,1,.305-.7.925.925,0,0,1,.72-.243L41.052,9.5a.942.942,0,0,1,.859.938V31.158a.941.941,0,0,1-.859.938L9.024,34.922c-.028,0-.055,0-.083,0ZM9.884,8.637V32.955L40.027,30.3v-19ZM40.969,31.158h.019Z" transform="translate(3.304 -6.665)" fill="#010b31" stroke="#010b31" stroke-width="0.6"/>
      <path id="Path_995" data-name="Path 995" d="M12.246,34.926a.956.956,0,0,1-.228-.028L.714,32.072A.941.941,0,0,1,0,31.158V10.435a.943.943,0,0,1,.714-.914L12.018,6.7a.942.942,0,0,1,.456,1.827L1.884,11.171V30.424l10.59,2.647a.942.942,0,0,1-.228,1.856Z" transform="translate(0 -6.665)" fill="#010b31" stroke="#010b31" stroke-width="0.6"/>
      <path id="Path_996" data-name="Path 996" d="M4.942,33.1A.942.942,0,0,1,4,32.158V8.608a.942.942,0,1,1,1.884,0v23.55A.942.942,0,0,1,4.942,33.1Z" transform="translate(1.652 -6.252)" fill="#010b31" stroke="#010b31" stroke-width="0.6"/>
      <path id="Path_997" data-name="Path 997" d="M12.941,30.056A.942.942,0,0,1,12,29.115V10.275a.942.942,0,1,1,1.884,0v18.84A.942.942,0,0,1,12.941,30.056Z" transform="translate(4.956 -5.564)" fill="#010b31" stroke="#010b31" stroke-width="0.6"/>
      <path id="Path_998" data-name="Path 998" d="M18.274,28.839a.942.942,0,0,1-.942-.942V10.942a.942.942,0,1,1,1.884,0V27.9A.942.942,0,0,1,18.274,28.839Z" transform="translate(7.159 -5.288)" fill="#010b31" stroke="#010b31" stroke-width="0.6"/>
      <path id="Path_999" data-name="Path 999" d="M23.608,27.622a.942.942,0,0,1-.942-.942V11.608a.942.942,0,1,1,1.884,0V26.68A.942.942,0,0,1,23.608,27.622Z" transform="translate(9.362 -5.013)" fill="#010b31" stroke="#010b31" stroke-width="0.6"/>
      <path id="Path_1000" data-name="Path 1000" d="M28.941,26.4A.942.942,0,0,1,28,25.463V12.275a.942.942,0,1,1,1.884,0V25.463A.942.942,0,0,1,28.941,26.4Z" transform="translate(11.565 -4.738)" fill="#010b31" stroke="#010b31" stroke-width="0.6"/>
    </g>
  </g>
</svg>
