<svg xmlns="http://www.w3.org/2000/svg" width="515.983" height="488.806" viewBox="0 0 515.983 488.806">
  <g id="Group_997" data-name="Group 997" transform="translate(-1091.058 -14.294)">
    <g id="noun_grid_2006809" transform="translate(1091.608 14.844)">
      <g id="Group_996" data-name="Group 996" transform="translate(0 0)">
        <g id="Group_995" data-name="Group 995">
          <path id="Path_1318" data-name="Path 1318" d="M.515,18.59V10.465H447.876V18.59Z" transform="translate(11.673 229.304)" fill="aqua" stroke="aqua" stroke-width="0.343"/>
          <path id="Path_1319" data-name="Path 1319" d="M10.465.858H18.59v474.2H10.465Z" transform="translate(227.321 11.4)" fill="aqua" stroke="aqua" stroke-width="0.343"/>
          <path id="Path_1320" data-name="Path 1320" d="M15.611,1.029h8.125V456.087H15.611Z" transform="translate(339.119 15.274)" fill="aqua" stroke="aqua" stroke-width="0.343"/>
          <path id="Path_1321" data-name="Path 1321" d="M13.272,468.067H5.147V.858h8.125Z" transform="translate(111.797 11.4)" fill="aqua" stroke="aqua" stroke-width="0.343"/>
          <path id="Path_1322" data-name="Path 1322" d="M.685,23.737V15.611H442.477v8.125Z" transform="translate(15.547 346.038)" fill="aqua" stroke="aqua" stroke-width="0.343"/>
          <path id="Path_1323" data-name="Path 1323" d="M.514,21.4V5.147h410.35V21.4Z" transform="translate(11.656 108.679)" fill="aqua" stroke="aqua" stroke-width="1"/>
          <path id="Path_1324" data-name="Path 1324" d="M71,108.718A52.815,52.815,0,1,1,123.815,55.9,52.815,52.815,0,0,1,71,108.718Zm0-16.251A36.564,36.564,0,1,0,34.436,55.9,36.564,36.564,0,0,0,71,92.467Z" transform="translate(391.068 61.985)" fill="aqua" stroke="aqua" stroke-width="1.1"/>
          <path id="Path_1325" data-name="Path 1325" d="M450.6,187.294a7.777,7.777,0,1,1,15.538,0V447.419c0,22.437-17.391,40.627-38.844,40.627H38.844C17.391,488.046,0,469.857,0,447.419V40.967C0,18.529,17.391.34,38.844.34H427.358C448.811.34,466.2,18.529,466.2,40.967v8.2a7.777,7.777,0,1,1-15.538,0v-8.2c0-13.463-10.435-24.376-23.307-24.376H38.844c-12.872,0-23.307,10.914-23.307,24.376V447.419c0,13.462,10.435,24.376,23.307,24.376H427.289c12.872,0,23.307-10.914,23.307-24.376Z" transform="translate(0 -0.34)" fill="aqua" stroke="aqua" stroke-width="1.1"/>
        </g>
      </g>
    </g>
  </g>
</svg>
