<svg id="Component_9_1" data-name="Component 9 – 1" xmlns="http://www.w3.org/2000/svg" xmlns:xlink="http://www.w3.org/1999/xlink" width="41" height="40" viewBox="0 0 41 40">
  <defs>
    <clipPath id="clip-path">
      <rect id="Rectangle_2365" data-name="Rectangle 2365" width="41" height="40" fill="aqua" stroke="#06b0b0" stroke-width="1"/>
    </clipPath>
  </defs>
  <g id="Mask_Group_99" data-name="Mask Group 99" clip-path="url(#clip-path)">
    <path id="sewer" d="M18.862,38.718c-5.325,0,3.646,0,0,0ZM32.568,18.782a1.557,1.557,0,0,0-1.557-1.557H26.494a1.557,1.557,0,1,0,0,3.115h4.517A1.557,1.557,0,0,0,32.568,18.782Zm-10.357,0a1.557,1.557,0,0,0-1.557-1.557H16.837a1.557,1.557,0,0,0,0,3.115h3.816A1.557,1.557,0,0,0,22.211,18.782Zm-9.579,0a1.557,1.557,0,0,0-1.557-1.557H6.714a1.557,1.557,0,0,0,0,3.115h4.361A1.557,1.557,0,0,0,12.632,18.782Zm18.378,5.841a1.557,1.557,0,0,0-1.557-1.557H26.494a1.557,1.557,0,1,0,0,3.115h2.959A1.557,1.557,0,0,0,31.011,24.622Zm-8.8,0a1.557,1.557,0,0,0-1.557-1.557H16.837a1.557,1.557,0,0,0,0,3.115h3.816A1.557,1.557,0,0,0,22.211,24.622Zm-9.579,0a1.557,1.557,0,0,0-1.557-1.557h-2.8a1.557,1.557,0,1,0,0,3.115h2.8A1.557,1.557,0,0,0,12.632,24.622ZM31.011,12.941a1.557,1.557,0,0,0-1.557-1.557H26.494a1.557,1.557,0,1,0,0,3.115h2.959A1.557,1.557,0,0,0,31.011,12.941Zm-8.8,0a1.557,1.557,0,0,0-1.557-1.557H16.837a1.557,1.557,0,0,0,0,3.115h3.816A1.557,1.557,0,0,0,22.211,12.941Zm0-5.841a1.557,1.557,0,0,0-1.557-1.557H16.837a1.557,1.557,0,0,0,0,3.115h3.816A1.557,1.557,0,0,0,22.211,7.1Zm-9.579,5.841a1.557,1.557,0,0,0-1.557-1.557h-2.8a1.557,1.557,0,1,0,0,3.115h2.8A1.557,1.557,0,0,0,12.632,12.941Zm9.579,17.522a1.557,1.557,0,0,0-1.557-1.557H16.837a1.557,1.557,0,1,0,0,3.115h3.816A1.557,1.557,0,0,0,22.211,30.463Zm0,0" transform="translate(1.678 1.154)" fill="aqua"/>
  </g>
  <line id="Line_179" data-name="Line 179" x2="27.789" transform="translate(6.645 19.936)" fill="none" stroke="aqua" stroke-linecap="round" stroke-width="4"/>
</svg>
