<svg xmlns="http://www.w3.org/2000/svg" width="42.029" height="32.014" viewBox="0 0 42.029 32.014">
  <g id="Group_621" data-name="Group 621" transform="translate(-1066.798 -609)">
    <g id="container" transform="translate(1066.798 609)">
      <path id="Path_1003" data-name="Path 1003" d="M34.641,0V4.925H7.552V0H0V32.014H42.029V0Zm0,27.089v2.463H7.552V27.089ZM2.463,24.626V7.388h37.1V24.626Zm0-22.164H5.089V4.925H2.463Zm0,24.626H5.089v2.463H2.463Zm37.1,2.463H37.1V27.089h2.463ZM37.1,4.925V2.463h2.463V4.925Zm0,0" fill="#010b31"/>
      <path id="Path_1004" data-name="Path 1004" d="M3.179,6.154H5.642V18.467H3.179Zm0,0" transform="translate(1.91 3.697)" fill="#010b31"/>
      <path id="Path_1005" data-name="Path 1005" d="M6.256,6.154H8.719V18.467H6.256Zm0,0" transform="translate(3.758 3.697)" fill="#010b31"/>
      <path id="Path_1006" data-name="Path 1006" d="M9.333,6.154H11.8V18.467H9.333Zm0,0" transform="translate(5.607 3.697)" fill="#010b31"/>
      <path id="Path_1007" data-name="Path 1007" d="M12.41,6.154h2.463V18.467H12.41Zm0,0" transform="translate(7.455 3.697)" fill="#010b31"/>
      <path id="Path_1008" data-name="Path 1008" d="M15.487,6.154H17.95V18.467H15.487Zm0,0" transform="translate(9.303 3.697)" fill="#010b31"/>
      <path id="Path_1009" data-name="Path 1009" d="M18.564,6.154h2.463V18.467H18.564Zm0,0" transform="translate(11.152 3.697)" fill="#010b31"/>
      <path id="Path_1010" data-name="Path 1010" d="M21.641,6.154H24.1V18.467H21.641Zm0,0" transform="translate(13 3.697)" fill="#010b31"/>
    </g>
  </g>
</svg>
