<svg xmlns="http://www.w3.org/2000/svg" xmlns:xlink="http://www.w3.org/1999/xlink" width="52.544" height="52.544" viewBox="0 0 52.544 52.544">
  <defs>
    <clipPath id="clip-path">
      <circle id="Ellipse_54" data-name="Ellipse 54" cx="26.272" cy="26.272" r="26.272" fill="#010B31" stroke="#010B31" stroke-width="1"/>
    </clipPath>
  </defs>
  <g id="Mask_Group_107" data-name="Mask Group 107" clip-path="url(#clip-path)">
    <g id="ice-crystal" transform="translate(4.419 2.305)">
      <path id="Path_992" data-name="Path 992" d="M41.783,24.719l-8.495,2.275L30.014,25.1V21.56L33.251,19.7l8.532,2.286a1.985,1.985,0,0,0,1.026-3.835L38.132,16.9l4.312-2.476a1.985,1.985,0,1,0-1.976-3.443l-4.321,2.481L37.4,8.783a1.985,1.985,0,1,0-3.834-1.028l-2.277,8.5L28.032,18.12l-3.088-1.785V12.589l6.244-6.244a1.985,1.985,0,0,0-2.807-2.807L24.944,6.974V1.985a1.985,1.985,0,0,0-3.97,0V6.95L17.562,3.538a1.985,1.985,0,1,0-2.807,2.807l6.219,6.219v3.785L17.91,18.117l-3.257-1.869L12.378,7.755A1.985,1.985,0,1,0,8.544,8.783L9.8,13.461,5.476,10.98A1.985,1.985,0,1,0,3.5,14.423L7.812,16.9,3.134,18.152a1.985,1.985,0,1,0,1.027,3.835L12.694,19.7l3.233,1.856,0,3.548L12.655,27,4.161,24.718a1.985,1.985,0,1,0-1.027,3.834l4.66,1.25L3.5,32.284a1.985,1.985,0,0,0,.994,3.7,1.952,1.952,0,0,0,.991-.267L9.8,33.227l-1.258,4.7a1.985,1.985,0,0,0,1.4,2.432,1.962,1.962,0,0,0,.515.068,1.986,1.986,0,0,0,1.915-1.473l2.286-8.53,3.252-1.876,3.058,1.765v3.834l-6.219,6.219a1.985,1.985,0,0,0,2.807,2.807l3.412-3.412V44.72a1.985,1.985,0,0,0,3.97,0V39.732l3.437,3.437a1.985,1.985,0,0,0,2.807-2.807l-6.244-6.244V30.324l3.085-1.78L31.28,30.42l2.286,8.53A1.984,1.984,0,1,0,37.4,37.923l-1.259-4.7,4.323,2.494a1.955,1.955,0,0,0,.991.267,1.985,1.985,0,0,0,.994-3.7l-4.3-2.481,4.66-1.25a1.984,1.984,0,0,0-1.026-3.834ZM26.044,25.1l-3.072,1.774L19.9,25.1l0-3.551,3.074-1.773,3.072,1.776Z" transform="translate(-1.662)" fill="#010B31"/>

    </g>
  </g>
</svg>
