<svg id="Component_18_1" data-name="Component 18 – 1" xmlns="http://www.w3.org/2000/svg" xmlns:xlink="http://www.w3.org/1999/xlink" width="32" height="32" viewBox="0 0 32 32">
  <defs>
    <clipPath id="clip-path">
      <circle id="Ellipse_22" data-name="Ellipse 22" cx="16" cy="16" r="16" fill="aqua" stroke="#06b0b0" stroke-width="1"/>
    </clipPath>
  </defs>
  <g id="Mask_Group_93" data-name="Mask Group 93" clip-path="url(#clip-path)">
    <g id="refresh_1_" data-name="refresh (1)" transform="translate(2)">
      <g id="Group_404" data-name="Group 404" transform="translate(4.451 22.879)">
        <g id="Group_403" data-name="Group 403">
          <path id="Path_903" data-name="Path 903" d="M9.612,24.515a6.966,6.966,0,0,1-.735-.578,1.333,1.333,0,0,0-1.784,1.981,9.6,9.6,0,0,0,1.018.8,1.333,1.333,0,1,0,1.5-2.2Z" transform="translate(-6.652 -23.594)" fill="aqua"/>
        </g>
      </g>
      <g id="Group_406" data-name="Group 406">
        <g id="Group_405" data-name="Group 405">
          <path id="Path_904" data-name="Path 904" d="M30.062,14.295A14.19,14.19,0,0,0,16.012,0,14.131,14.131,0,0,0,2.072,12.547a1.334,1.334,0,0,0,2.649.315,11.462,11.462,0,0,1,11.292-10.2A11.521,11.521,0,0,1,27.4,14.295a11.594,11.594,0,0,1-8.557,11.25l1.611-2.3a1.333,1.333,0,1,0-2.183-1.531L14.92,26.49l-.005.01a1.325,1.325,0,0,0-.083.147c-.014.027-.033.054-.045.082s-.025.079-.038.118a1.342,1.342,0,0,0-.041.131c-.006.03-.007.061-.011.091a1.335,1.335,0,0,0-.017.17c0,.005,0,.011,0,.016,0,.031.007.06.009.091a1.276,1.276,0,0,0,.015.152c.008.042.021.082.033.123s.023.083.039.124a1.255,1.255,0,0,0,.057.117c.019.038.038.076.061.112s.051.071.079.105.051.066.079.1a1.314,1.314,0,0,0,.111.1c.023.019.042.041.066.059l4.685,3.411a1.333,1.333,0,0,0,1.569-2.156l-2-1.458A14.262,14.262,0,0,0,30.062,14.295Z" transform="translate(-2.062)" fill="aqua"/>
        </g>
      </g>
      <g id="Group_408" data-name="Group 408" transform="translate(0.669 17.395)">
        <g id="Group_407" data-name="Group 407">
          <path id="Path_905" data-name="Path 905" d="M5.817,20.028C5.811,20,5.8,19.982,5.8,19.959a1.288,1.288,0,0,0-.067-.195c0-.007,0-.016-.008-.023a8.515,8.515,0,0,1-.373-.9,1.333,1.333,0,1,0-2.525.858,10.982,10.982,0,0,0,.447,1.1s.006.009.008.014a1.314,1.314,0,0,0,.171.3c.017.022.035.042.053.063a1.325,1.325,0,0,0,.229.215c.01.007.019.017.029.024a1.35,1.35,0,0,0,.309.153c.028.01.055.018.084.026a1.323,1.323,0,0,0,.355.055h.006a1.336,1.336,0,0,0,1.306-1.068,1.308,1.308,0,0,0,0-.551Z" transform="translate(-2.752 -17.938)" fill="aqua"/>
        </g>
      </g>
    </g>
  </g>
</svg>
