<svg xmlns="http://www.w3.org/2000/svg" width="51.992" height="16.551" viewBox="0 0 51.992 16.551">
  <g id="Group_575" data-name="Group 575" transform="translate(-1015.925 -621.949)">
    <g id="tank" transform="translate(1015.925 621.949)">
      <g id="Group_562" data-name="Group 562" transform="translate(0 0)">
        <g id="Group_561" data-name="Group 561">
          <path id="Path_1001" data-name="Path 1001" d="M46.017,16.324H10.576a8.276,8.276,0,1,0,0,16.551h35.44a8.276,8.276,0,1,0,0-16.551Zm0,12.872H10.576a4.6,4.6,0,1,1,0-9.193h35.44a4.6,4.6,0,1,1,0,9.193Z" transform="translate(-2.301 -16.324)" fill="#010b31"/>
        </g>
      </g>
      <g id="Group_564" data-name="Group 564" transform="translate(7.774 6.038)">
        <g id="Group_563" data-name="Group 563">
          <circle id="Ellipse_55" data-name="Ellipse 55" cx="2.238" cy="2.238" r="2.238" fill="#010b31"/>
        </g>
      </g>
      <g id="Group_566" data-name="Group 566" transform="translate(14.167 6.038)">
        <g id="Group_565" data-name="Group 565">
          <circle id="Ellipse_56" data-name="Ellipse 56" cx="2.238" cy="2.238" r="2.238" fill="#010b31"/>
        </g>
      </g>
      <g id="Group_568" data-name="Group 568" transform="translate(20.561 6.038)">
        <g id="Group_567" data-name="Group 567">
          <circle id="Ellipse_57" data-name="Ellipse 57" cx="2.238" cy="2.238" r="2.238" fill="#010b31"/>
        </g>
      </g>
      <g id="Group_570" data-name="Group 570" transform="translate(26.955 6.038)">
        <g id="Group_569" data-name="Group 569">
          <circle id="Ellipse_58" data-name="Ellipse 58" cx="2.238" cy="2.238" r="2.238" fill="#010b31"/>
        </g>
      </g>
      <g id="Group_572" data-name="Group 572" transform="translate(33.349 6.038)">
        <g id="Group_571" data-name="Group 571">
          <circle id="Ellipse_59" data-name="Ellipse 59" cx="2.238" cy="2.238" r="2.238" fill="#010b31"/>
        </g>
      </g>
      <g id="Group_574" data-name="Group 574" transform="translate(39.742 6.038)">
        <g id="Group_573" data-name="Group 573">
          <circle id="Ellipse_60" data-name="Ellipse 60" cx="2.238" cy="2.238" r="2.238" fill="#010b31"/>
        </g>
      </g>
    </g>
  </g>
</svg>
