<svg xmlns="http://www.w3.org/2000/svg" xmlns:xlink="http://www.w3.org/1999/xlink" width="36" height="36" viewBox="0 0 36 36">
  <defs>
    <clipPath id="clip-path">
      <rect id="Rectangle_2388" data-name="Rectangle 2388" width="36" height="36" transform="translate(185 80)" fill="#0fd" stroke="#707070" stroke-width="1"/>
    </clipPath>
  </defs>
  <g id="Mask_Group_101" data-name="Mask Group 101" transform="translate(-185 -80)" clip-path="url(#clip-path)">
    <g id="_3d_1_" data-name="3d (1)" transform="translate(185 81.131)">
      <path id="Path_961" data-name="Path 961" d="M33.8,16.28a1.06,1.06,0,0,0-1.045,1.845c2.434,1.379,3.774,3.044,3.774,4.688,0,3.759-6.119,6.076-9.823,6.826a1.06,1.06,0,1,0,.421,2.078c4.951-1,11.523-3.861,11.523-8.9,0-2.441-1.722-4.761-4.849-6.533Z" transform="translate(-2.464 -2.669)" fill="#0fd"/>
      <path id="Path_962" data-name="Path 962" d="M12.793,31.946v3.59a1.06,1.06,0,0,0,1.648.882L20.8,32.177a1.06,1.06,0,0,0,0-1.764l-6.361-4.241a1.06,1.06,0,0,0-1.648.882V29.8C8.836,29.122,2.12,26.806,2.12,22.813c0-1.644,1.34-3.309,3.774-4.688A1.06,1.06,0,0,0,4.849,16.28C1.722,18.052,0,20.372,0,22.813,0,28.24,7.457,31.1,12.793,31.946Zm2.12-2.911L18.3,31.3l-3.39,2.26Z" transform="translate(0 -2.669)" fill="#0fd"/>
      <path id="Path_963" data-name="Path 963" d="M9.453,17.154a1.06,1.06,0,0,0,.586.948l8.482,4.241a1.079,1.079,0,0,0,.474.112h0a1.069,1.069,0,0,0,.474-.112L27.951,18.1a1.06,1.06,0,0,0,.586-.948V6.551a1.062,1.062,0,0,0-.586-.948L19.469,1.362a1.06,1.06,0,0,0-.948,0L10.039,5.6a1.064,1.064,0,0,0-.586.948Zm2.12-8.887,6.361,3.181v8.232L11.574,16.5ZM26.417,16.5l-6.361,3.181V11.447l6.361-3.181ZM19,3.5l6.111,3.056L19,9.607,12.884,6.551Z" transform="translate(-0.901 -1.25)" fill="#0fd"/>
    </g>
  </g>
</svg>
