<svg id="Component_17_1" data-name="Component 17 – 1" xmlns="http://www.w3.org/2000/svg" xmlns:xlink="http://www.w3.org/1999/xlink" width="30" height="27" viewBox="0 0 30 27">
  <defs>
    <clipPath id="clip-path">
      <rect id="Rectangle_2266" data-name="Rectangle 2266" width="30" height="27" transform="translate(220 597)" fill="aqua" stroke="#707070" stroke-width="1"/>
    </clipPath>
  </defs>
  <g id="Mask_Group_97" data-name="Mask Group 97" transform="translate(-220 -597)" clip-path="url(#clip-path)">
    <g id="wireframe" transform="translate(220.267 597.587)">
      <path id="Path_926" data-name="Path 926" d="M27.95,22.957H2.2A2.061,2.061,0,0,1,0,21.073v-2.69A2.061,2.061,0,0,1,2.2,16.5H27.95a2.061,2.061,0,0,1,2.2,1.883v2.69A2.061,2.061,0,0,1,27.95,22.957ZM2.2,18.114a.294.294,0,0,0-.314.269v2.69a.294.294,0,0,0,.314.269H27.95a.294.294,0,0,0,.314-.269v-2.69a.294.294,0,0,0-.314-.269Z" transform="translate(0 3.163)" fill="aqua"/>
      <path id="Path_927" data-name="Path 927" d="M34.592,6.457h-5.38A1.806,1.806,0,0,1,27.5,4.573V1.883A1.806,1.806,0,0,1,29.212,0h5.38A1.806,1.806,0,0,1,36.3,1.883v2.69A1.806,1.806,0,0,1,34.592,6.457Zm-5.38-4.842a.258.258,0,0,0-.245.269v2.69a.258.258,0,0,0,.245.269h5.38a.258.258,0,0,0,.245-.269V1.883a.258.258,0,0,0-.245-.269Z" transform="translate(-6.156 9.978)" fill="aqua"/>
      <path id="Path_928" data-name="Path 928" d="M34.592,39.457h-5.38A1.806,1.806,0,0,1,27.5,37.573v-2.69A1.806,1.806,0,0,1,29.212,33h5.38A1.806,1.806,0,0,1,36.3,34.883v2.69A1.806,1.806,0,0,1,34.592,39.457Zm-5.38-4.842a.258.258,0,0,0-.245.269v2.69a.258.258,0,0,0,.245.269h5.38a.258.258,0,0,0,.245-.269v-2.69a.258.258,0,0,0-.245-.269Z" transform="translate(-6.156 -33)" fill="aqua"/>
      <path id="Path_929" data-name="Path 929" d="M34.592,6.457h-5.38A1.806,1.806,0,0,1,27.5,4.573V1.883A1.806,1.806,0,0,1,29.212,0h5.38A1.806,1.806,0,0,1,36.3,1.883v2.69A1.806,1.806,0,0,1,34.592,6.457Zm-5.38-4.842a.258.258,0,0,0-.245.269v2.69a.258.258,0,0,0,.245.269h5.38a.258.258,0,0,0,.245-.269V1.883a.258.258,0,0,0-.245-.269Z" transform="translate(-16.828 9.978)" fill="aqua"/>
      <path id="Path_930" data-name="Path 930" d="M34.592,39.457h-5.38A1.806,1.806,0,0,1,27.5,37.573v-2.69A1.806,1.806,0,0,1,29.212,33h5.38A1.806,1.806,0,0,1,36.3,34.883v2.69A1.806,1.806,0,0,1,34.592,39.457Zm-5.38-4.842a.258.258,0,0,0-.245.269v2.69a.258.258,0,0,0,.245.269h5.38a.258.258,0,0,0,.245-.269v-2.69a.258.258,0,0,0-.245-.269Z" transform="translate(-16.828 -33)" fill="aqua"/>
      <path id="Path_931" data-name="Path 931" d="M34.592,39.457h-5.38A1.806,1.806,0,0,1,27.5,37.573v-2.69A1.806,1.806,0,0,1,29.212,33h5.38A1.806,1.806,0,0,1,36.3,34.883v2.69A1.806,1.806,0,0,1,34.592,39.457Zm-5.38-4.842a.258.258,0,0,0-.245.269v2.69a.258.258,0,0,0,.245.269h5.38a.258.258,0,0,0,.245-.269v-2.69a.258.258,0,0,0-.245-.269Z" transform="translate(-27.5 -23.022)" fill="aqua"/>
    </g>
  </g>
</svg>
