<svg xmlns="http://www.w3.org/2000/svg" width="512.228" height="178.237" viewBox="0 0 512.228 178.237">
  <g id="Group_949" data-name="Group 949" transform="translate(-270.587 -613.846)">
    <g id="noun_Sea_3309387" transform="translate(270.587 613.846)">
      <g id="Group_941" data-name="Group 941" transform="translate(0)">
        <path id="Path_1290" data-name="Path 1290" d="M1.379,99.968c23.808,3.591,26.79,32.276,59.842,32.276,35.094,0,36.319-32.71,65.409-32.71,29.161,0,30.131,32.71,65.393,32.71,35.066,0,36.274-32.71,65.4-32.71,29.178,0,30.149,32.71,65.431,32.71,35.094,0,36.319-32.71,65.409-32.71,29.178,0,30.171,32.71,65.453,32.71,33.214,0,35.9-28.667,59.885-32.277v44.539c-30.28,3.415-32.074,32.35-59.885,32.35-29.187,0-30.16-32.71-65.453-32.71-35.094,0-36.319,32.71-65.409,32.71-29.178,0-30.149-32.71-65.431-32.71-35.094,0-36.313,32.71-65.4,32.71-29.161,0-30.131-32.71-65.393-32.71-35.094,0-36.319,32.71-65.409,32.71-27.351,0-29.932-28.973-59.842-32.349V99.968ZM61.221,76.5c35.094,0,36.319-32.71,65.409-32.71,29.161,0,30.131,32.71,65.393,32.71,35.066,0,36.274-32.71,65.4-32.71,29.178,0,30.149,32.71,65.431,32.71,35.094,0,36.319-32.71,65.409-32.71,29.178,0,30.171,32.71,65.453,32.71,33.077,0,36.16-28.77,59.885-32.313v44.57c-15.058,1.7-23.553,10.083-31.1,17.626-7.906,7.9-14.735,14.724-28.79,14.724-29.187,0-30.16-32.71-65.453-32.71-35.094,0-36.319,32.71-65.409,32.71-29.178,0-30.149-32.71-65.431-32.71-35.094,0-36.313,32.71-65.4,32.71-29.161,0-30.131-32.71-65.393-32.71-35.094,0-36.319,32.71-65.409,32.71-27.351,0-29.932-28.973-59.842-32.349V44.188C25.221,47.752,28.085,76.5,61.221,76.5ZM1.379,208.1V155.715c23.808,3.591,26.79,32.276,59.842,32.276,35.094,0,36.319-32.71,65.409-32.71,29.161,0,30.131,32.71,65.393,32.71,35.066,0,36.274-32.71,65.4-32.71,29.178,0,30.149,32.71,65.431,32.71,35.094,0,36.319-32.71,65.409-32.71,29.178,0,30.171,32.71,65.453,32.71,33.214,0,35.9-28.667,59.885-32.277V208.1a13.927,13.927,0,0,1-13.927,13.927H15.307A13.928,13.928,0,0,1,1.379,208.1Z" transform="translate(-1.379 -43.791)" fill="#00ffde"/>
      </g>
    </g>
  </g>
</svg>
