<svg xmlns="http://www.w3.org/2000/svg" xmlns:xlink="http://www.w3.org/1999/xlink" width="212" height="100" viewBox="0 0 212 100">
  <defs>
    <clipPath id="clip-path">
      <rect id="Rectangle_2893" data-name="Rectangle 2893" width="212" height="100" transform="translate(300 647)" fill="#fff" stroke="#707070" stroke-width="1"/>
    </clipPath>
  </defs>
  <g id="Mask_Group_150" data-name="Mask Group 150" transform="translate(-300 -647)" clip-path="url(#clip-path)">
    <g id="svmlogo" transform="translate(292.952 674.84)">
      <path id="Path_1146" data-name="Path 1146" d="M24,4.608s5.762.732,7.88,3.431c0,0,1.64,1.363,2.808,5.653a33.172,33.172,0,0,1,.95,4.744l-.582.95,2.7,4.594a1.179,1.179,0,0,1-.877,1.6s-.95.218-1.022.95c0,0,.732.877.291,1.459l-.509.509.509.95s.073.218-.218.364l-.454.218s-.145.073-.145.364a4.09,4.09,0,0,0,.145,1.75.909.909,0,0,1-.073.877,3.128,3.128,0,0,1-1.313,1.168l-.582.145-.582.073s-3.063-.073-3.136,0-2.272.145-3.431,1.677L25.28,41.707l-.073.364s-.218.218-.364.145" fill="none" stroke="aqua" stroke-miterlimit="10" stroke-width="0.5"/>
      <path id="Path_1147" data-name="Path 1147" d="M35.668,21.885c-.209.082-.423.159-.632.245-.582.241-1.168.454-1.754.7l-.877.35L31,23.717l-.845.318-.1.045-1.209.427-1.236.454-.068.027c-.654.227-1.309.454-1.959.682-.972.345-1.954.654-2.927,1-1.622.577-3.267,1.091-4.9,1.65a.909.909,0,0,1-.454.086.359.359,0,0,1,.218-.136L18.336,28c.7-.241,1.409-.454,2.1-.732.427-.159.859-.286,1.281-.454s.759-.268,1.136-.418c.3-.123.618-.218.909-.336.645-.245,1.3-.454,1.945-.723.291-.118.591-.218.886-.327l.882-.336,1.3-.5.95-.373,1.3-.527,1.118-.454c.409-.168.823-.318,1.222-.5s.909-.354,1.318-.568c.245-.123.509-.218.763-.323l.1-.045c.409-.191.818-.391,1.236-.573.486-.209.954-.454,1.436-.673a14.35,14.35,0,0,0,1.309-.6c.427-.241.877-.454,1.3-.7.245-.15.509-.277.759-.423.609-.359,1.213-.723,1.786-1.132a9.22,9.22,0,0,0,.909-.7c.154-.145.327-.273.482-.423a4.822,4.822,0,0,0,.618-.759,2.3,2.3,0,0,0,.368-.863.454.454,0,0,0,0-.15,1.736,1.736,0,0,0-.141-.545,5.111,5.111,0,0,0-.454-.618.336.336,0,0,0-.086-.073l-.345-.232a1.2,1.2,0,0,0-.336-.164c-.118-.036-.236-.086-.359-.123a3.522,3.522,0,0,0-.909-.177.227.227,0,0,1-.168-.068,2.454,2.454,0,0,0,.636,0,5.182,5.182,0,0,1,.8.041,5.526,5.526,0,0,1,1.4.273,3.027,3.027,0,0,1,.854.454,1.113,1.113,0,0,1,.214.214,2.949,2.949,0,0,1,.373.654.541.541,0,0,1,.041.145,1.459,1.459,0,0,1-.091.741,2.845,2.845,0,0,1-.586.909c-.223.218-.454.454-.673.663a4.74,4.74,0,0,1-.409.332,15.7,15.7,0,0,1-1.468.991l-.1.059c-.364.25-.754.454-1.136.673-.954.545-1.959,1-2.954,1.509a10.184,10.184,0,0,1-1,.454,2.049,2.049,0,0,0-.2.1c-.382.191-.777.354-1.172.518-.254.1-.5.223-.759.336l-.382.159" fill="aqua"/>
      <path id="Path_1148" data-name="Path 1148" d="M21.544,13.978a.532.532,0,0,1,.486-.345l.827.032a.454.454,0,0,0,.454-.341l.073-.345a.386.386,0,0,0-.277-.454l-.841-.186a.482.482,0,0,1-.345-.454v-.654a.527.527,0,0,1,.309-.5L23,10.42a.454.454,0,0,0,.264-.491l-.091-.341a.386.386,0,0,0-.454-.3l-.841.141a.486.486,0,0,1-.5-.277L21.1,8.58A.523.523,0,0,1,21.181,8l.632-.609a.454.454,0,0,0,.041-.573l-.209-.286a.386.386,0,0,0-.518-.091l-.727.486a.482.482,0,0,1-.568-.05l-.477-.4a.527.527,0,0,1-.168-.563l.3-.823a.454.454,0,0,0-.191-.523L19,4.385a.454.454,0,0,0-.55.1l-.6.727a.573.573,0,0,1-.577.164s-.273-.091-.6-.164h-.05c-.055,0-.109-.182-.123-.382l-.059-.909a.454.454,0,0,0-.386-.4l-.35-.036a.386.386,0,0,0-.418.323l-.132.882a.454.454,0,0,1-.418.386l-.65.109a.536.536,0,0,1-.532-.259l-.409-.773a.454.454,0,0,0-.518-.209l-.359.114a.386.386,0,0,0-.245.454l.245.854a.454.454,0,0,1-.209.541l-.545.327a.536.536,0,0,1-.591,0l-.673-.527a.454.454,0,0,0-.559,0l-.259.236a.386.386,0,0,0-.036.527l.541.65a.454.454,0,0,1,0,.568l-.373.532a.532.532,0,0,1-.545.223l-.8-.2a.454.454,0,0,0-.5.245l-.141.323a.386.386,0,0,0,.182.5l.75.368a.454.454,0,0,1,.241.454l-.036.159c-.064.3-.091.527-.091.527a.514.514,0,0,1-.4.427l-.813.141a.454.454,0,0,0-.359.427v.35a.386.386,0,0,0,.368.377l.841.032a.486.486,0,0,1,.454.373l.155.627a.523.523,0,0,1-.2.554l-.7.454a.454.454,0,0,0-.155.536l.145.323a.386.386,0,0,0,.491.2l.8-.323a.482.482,0,0,1,.55.164l.386.5a.527.527,0,0,1,.045.586l-.454.736a.454.454,0,0,0,.077.55l.264.236a.386.386,0,0,0,.527,0l.618-.636a.482.482,0,0,1,.545-.073l.545.3a.527.527,0,0,1,.286.509l-.127.877a.454.454,0,0,0,.3.454l.336.109a.386.386,0,0,0,.454-.232l.309-.841a.477.477,0,0,1,.486-.3l.613.055a.532.532,0,0,1,.454.364l.277.872a.454.454,0,0,0,.454.314l.35-.036a.386.386,0,0,0,.341-.4l-.059-.882a.454.454,0,0,1,.327-.454l.6-.2a.536.536,0,0,1,.573.145l.554.663a.454.454,0,0,0,.55.1l.3-.177a.386.386,0,0,0,.145-.5l-.4-.763a.454.454,0,0,1,.109-.554l.454-.454a.536.536,0,0,1,.582-.1l.754.368a.454.454,0,0,0,.541-.136l.2-.286a.386.386,0,0,0-.073-.523l-.636-.514a.454.454,0,0,1-.127-.554Zm-6.589-1.05a1.313,1.313,0,1,1,1.563-1A1.313,1.313,0,0,1,14.955,12.928Z" fill="aqua"/>
      <path id="Path_1149" data-name="Path 1149" d="M15.755,9.252a2.449,2.449,0,1,0,1.872,2.913,2.449,2.449,0,0,0-1.872-2.913Zm-.8,3.676a1.313,1.313,0,1,1,1.563-1A1.313,1.313,0,0,1,14.955,12.928Z" fill="aqua"/>
      <path id="Path_1150" data-name="Path 1150" d="M16.314,6.68A5.076,5.076,0,1,0,19.507,8.9,5.076,5.076,0,0,0,16.314,6.68Zm-1.6,7.357a2.449,2.449,0,1,1,2.913-1.872A2.449,2.449,0,0,1,14.714,14.037Z" fill="#009ace"/>
      <path id="Path_1151" data-name="Path 1151" d="M16.518,5.749a6.03,6.03,0,1,0,4.612,7.175A6.03,6.03,0,0,0,16.518,5.749ZM14.16,16.6a5.076,5.076,0,1,1,6.035-3.881A5.076,5.076,0,0,1,14.16,16.6Z" fill="aqua"/>
      <path id="Path_1152" data-name="Path 1152" d="M24.962,7.221l.941-.164V6.4l-.963-.036a3.994,3.994,0,0,0-.2-.818L25.53,5l-.273-.6-.909.359a4.09,4.09,0,0,0-.5-.668l.514-.8-.5-.454-.686.723a4.09,4.09,0,0,0-.723-.373l.136-.972-.632-.2-.454.909a4.153,4.153,0,0,0-.6-.064h-.091L20.54,1.9l-.654.073.064.986a4.09,4.09,0,0,0-.8.282L18.5,2.5l-.568.336.454.863a4.09,4.09,0,0,0-.6.573l-.873-.418-.382.541L17.3,5a4,4,0,0,0-.323.777l-.954-.032-.114.618.909.232v.3a4.044,4.044,0,0,0,.036.545l-.882.359.145.645.945-.168a4.017,4.017,0,0,0,.373.754l-.663.7.4.532.809-.545a4.09,4.09,0,0,0,.636.532l-.332.909.577.323.523-.836a4.09,4.09,0,0,0,.791.227l.073.986.659.064.136-.982a4.122,4.122,0,0,0,.813-.109l.454.868.627-.209-.273-.945a4.09,4.09,0,0,0,.709-.432l.768.6.486-.454L24,9.543a4.058,4.058,0,0,0,.482-.686l.909.232.264-.6-.859-.423a4,4,0,0,0,.168-.841Zm-4.09.454a.8.8,0,1,1,.8-.8.8.8,0,0,1-.8.8Z" fill="aqua"/>
      <path id="Path_1153" data-name="Path 1153" d="M20.867,5.371a1.5,1.5,0,1,0,1.5,1.5,1.5,1.5,0,0,0-1.5-1.5Zm0,2.3a.8.8,0,1,1,.8-.8.8.8,0,0,1-.8.8Z" fill="#009ace"/>
      <path id="Path_1154" data-name="Path 1154" d="M20.867,3.767a3.1,3.1,0,1,0,3.1,3.1,3.1,3.1,0,0,0-3.1-3.1Zm0,4.594a1.487,1.487,0,1,1,1.059-.435,1.5,1.5,0,0,1-1.059.435Z" fill="aqua"/>
      <path id="Path_1155" data-name="Path 1155" d="M20.867,3.181a3.685,3.685,0,1,0,3.672,3.685,3.685,3.685,0,0,0-3.672-3.685Zm0,6.785a3.091,3.091,0,1,1,2.193-.9,3.1,3.1,0,0,1-2.193.9Z" fill="#009ace"/>
      <path id="Path_1156" data-name="Path 1156" d="M24.307,16.414l.936-.164v-.663l-.954-.036a3.994,3.994,0,0,0-.2-.818l.791-.532-.273-.6-.909.359a4.09,4.09,0,0,0-.523-.659l.514-.823-.5-.454-.668.7a4.09,4.09,0,0,0-.713-.368l.136-.972-.632-.2-.454.909a4.153,4.153,0,0,0-.6-.045h-.091L19.9,11.1l-.654.073.064.986a4.09,4.09,0,0,0-.8.282l-.632-.75-.609.341.454.863a4.09,4.09,0,0,0-.6.573l-.873-.418-.382.541.759.591a4,4,0,0,0-.323.777l-.954-.032-.132.65.909.232v.3a4.044,4.044,0,0,0,.036.545L15.278,17l.173.645.945-.168a4.017,4.017,0,0,0,.373.754l-.663.7.4.532.809-.545a4.09,4.09,0,0,0,.636.532l-.332.909.577.323.523-.836a4.09,4.09,0,0,0,.791.227l.073.986.659.064.136-.982a4.121,4.121,0,0,0,.813-.109l.454.868.627-.2-.273-.945a4.09,4.09,0,0,0,.727-.432l.768.6.486-.454-.623-.745a4.058,4.058,0,0,0,.482-.686l.909.232.25-.6-.859-.423a4,4,0,0,0,.173-.832Zm-4.09.454a.408.408,0,1,0-.009,0Z" transform="translate(1)" fill="aqua"/>
      <path id="Path_1157" data-name="Path 1157" d="M20.208,14.564a1.5,1.5,0,1,0,1.5,1.5A1.5,1.5,0,0,0,20.208,14.564Zm0,2.3a.8.8,0,1,1,.8-.8.8.8,0,0,1-.8.8Z" transform="translate(1)" fill="#009ace"/>
      <path id="Path_1158" data-name="Path 1158" d="M20.208,12.96a3.1,3.1,0,1,0,3.1,3.1A3.1,3.1,0,0,0,20.208,12.96Zm0,4.594a1.487,1.487,0,1,1,1.059-.435,1.5,1.5,0,0,1-1.059.435Z" transform="translate(1)" fill="aqua"/>
      <path id="Path_1159" data-name="Path 1159" d="M20.208,12.379a3.685,3.685,0,1,0,3.685,3.685,3.685,3.685,0,0,0-3.685-3.685Zm0,6.785a3.1,3.1,0,1,1,3.1-3.1,3.1,3.1,0,0,1-3.1,3.1Z" transform="translate(1)" fill="#009ace"/>
      <path id="Path_1160" data-name="Path 1160" d="M35.445,18.309c.082-.05.159-.1.241-.164l.259-.177a20.863,20.863,0,0,0,3.822-2.817,3,3,0,0,0,.554-.713.623.623,0,0,0-.332-.959,3.345,3.345,0,0,0-1.291-.25H37.186c-.132,0-.314.055-.359-.164l1.109-.209c.236-.041.454-.073.7-.1l.523-.077c.286-.041.568-.091.854-.127s.673-.068,1.009-.1h.186a8.748,8.748,0,0,1,1.5-.077h.227a5.24,5.24,0,0,1,1.472.268,2.418,2.418,0,0,1,.891.586,1.572,1.572,0,0,1,.159,2.195,7.462,7.462,0,0,1-2.236,2.063,41.085,41.085,0,0,1-5.939,3.24c-2.677,1.236-5.4,2.368-8.152,3.44-3.181,1.236-6.362,2.408-9.579,3.49l-2.272.759c-.259.091-.518.182-.782.268l-1.109.345c-.082.045-.15.059-.141-.073l.736-.382,2.618-1.363,1.627-.85,2.413-1.25L25.2,23.794l4.09-2.072c1.159-.568,2.3-1.15,3.431-1.727.414-.214.809-.454,1.209-.7.259-.155.514-.318.773-.454" fill="#009ace"/>
      <path id="Path_1161" data-name="Path 1161" d="M33.787,13.846c-.064,0-.15,0-.127-.109l.909-.2,1.022-.214c.364-.073.727-.155,1.086-.259a.563.563,0,0,1,.15,0c.032,0,.059.05.1.055a1.677,1.677,0,0,0,.227,0h1.322a2.6,2.6,0,0,1,.836.064,2.186,2.186,0,0,1,.691.168.909.909,0,0,1,.523.454.845.845,0,0,1-.036.554,2.481,2.481,0,0,1-.454.65,7.471,7.471,0,0,1-.641.641c-.273.241-.554.454-.85.686-.536.4-1.077.786-1.64,1.141-.245.155-.486.314-.732.454a1.94,1.94,0,0,1-.241.109l-.027-.023c.032-.173.177-.236.3-.323a21.812,21.812,0,0,0,1.872-1.463,4.335,4.335,0,0,0,.877-1.032.7.7,0,0,0-.423-1.15,4.09,4.09,0,0,0-1.222-.209h-2" fill="aqua"/>
      <path id="Path_1162" data-name="Path 1162" d="M50.923,24.994a9.7,9.7,0,0,0,4.263,1.059c1.768,0,2.7-.732,2.7-1.845s-.809-1.668-2.849-2.377c-2.827-1.009-4.694-2.577-4.694-5.053,0-2.9,2.445-5.1,6.435-5.1a9.934,9.934,0,0,1,4.34.859l-.859,3.081a7.943,7.943,0,0,0-3.531-.809c-1.663,0-2.472.782-2.472,1.64,0,1.086.932,1.568,3.154,2.4,3,1.113,4.39,2.677,4.39,5.081,0,2.854-2.168,5.28-6.816,5.28a11.074,11.074,0,0,1-4.817-1.059Z" fill="#009ace"/>
      <path id="Path_1163" data-name="Path 1163" d="M80.616,20.249c0,5.608-3.363,8.966-8.361,8.966s-8-3.817-8-8.693c0-5.1,3.281-8.92,8.275-8.92C77.762,11.606,80.616,15.523,80.616,20.249Zm-12.27.2c0,3.363,1.563,5.712,4.135,5.712s4.09-2.477,4.09-5.785c0-3.081-1.436-5.712-4.09-5.712s-4.153,2.477-4.153,5.785Z" fill="#009ace"/>
      <path id="Path_1164" data-name="Path 1164" d="M83.792,11.911h3.835v13.8h6.762v3.236h-10.6Z" fill="#009ace"/>
      <path id="Path_1165" data-name="Path 1165" d="M99.661,28.938,94.208,11.906H98.42l2.068,7.2c.582,2.045,1.109,3.967,1.513,6.089h.077c.427-2.045.959-4.09,1.541-6.012l2.168-7.271h4.09L104.15,28.947Z" fill="#009ace"/>
      <path id="Path_1166" data-name="Path 1166" d="M122.441,21.74h-6.257v4.044h6.966v3.181h-10.8V11.911H122.8v3.181h-6.635v3.535h6.257Z" fill="#009ace"/>
      <path id="Path_1167" data-name="Path 1167" d="M126.427,12.138a33.473,33.473,0,0,1,5.121-.354c2.522,0,4.29.377,5.5,1.341a4.322,4.322,0,0,1,1.59,3.59,4.513,4.513,0,0,1-3,4.167v.077c1.186.482,1.84,1.59,2.272,3.181.532,1.945,1.036,4.167,1.363,4.826h-3.935a22.814,22.814,0,0,1-1.163-3.972c-.477-2.149-1.213-2.7-2.8-2.727h-1.136v6.671h-3.808Zm3.808,7.33h1.513c1.918,0,3.054-.959,3.054-2.449s-1.059-2.349-2.827-2.349a7.63,7.63,0,0,0-1.74.127Z" fill="#009ace"/>
      <path id="Path_1168" data-name="Path 1168" d="M156.4,22.422c-.077-2.045-.15-4.544-.15-7h-.05c-.554,2.172-1.263,4.6-1.918,6.594l-2.068,6.644h-3l-1.818-6.571c-.554-2.022-1.109-4.449-1.541-6.671h-.05c-.077,2.3-.177,4.926-.277,7.048l-.327,6.467h-3.558L142.722,11.9h5.121l1.663,5.694c.554,1.972,1.059,4.09,1.436,6.089h.1c.454-1.972,1.036-4.222,1.613-6.117l1.79-5.662H159.5l.909,17.032h-3.735Z" fill="#009ace"/>
      <path id="Path_1169" data-name="Path 1169" d="M167.848,11.911V28.938h-3.835V11.911Z" fill="#009ace"/>
      <path id="Path_1170" data-name="Path 1170" d="M171.81,28.938V11.911h4.508l3.531,6.239a53.715,53.715,0,0,1,2.777,5.835h.05a70.316,70.316,0,0,1-.3-7.125V11.911H185.9V28.938h-4.035l-3.635-6.571a57.74,57.74,0,0,1-2.967-6.008h-.1c.127,2.272.177,4.676.177,7.453v5.126Z" fill="#009ace"/>
      <path id="Path_1171" data-name="Path 1171" d="M189.847,12.161a33.869,33.869,0,0,1,5.171-.377c3.254,0,5.371.6,6.989,1.818a7.536,7.536,0,0,1,2.877,6.417,8.722,8.722,0,0,1-2.8,6.9c-1.79,1.491-4.544,2.2-7.871,2.2a32.892,32.892,0,0,1-4.363-.254Zm3.835,13.874a7.188,7.188,0,0,0,1.336.077c3.508.027,5.8-1.895,5.8-5.962,0-3.535-2.068-5.408-5.4-5.408a8.18,8.18,0,0,0-1.74.15Z" fill="#009ace"/>
      <path id="Path_1172" data-name="Path 1172" d="M208.16,24.994a9.7,9.7,0,0,0,4.263,1.059c1.768,0,2.7-.732,2.7-1.845s-.809-1.668-2.849-2.377c-2.827-1.009-4.69-2.577-4.69-5.053,0-2.9,2.445-5.1,6.435-5.1a9.934,9.934,0,0,1,4.34.859l-.859,3.081a7.943,7.943,0,0,0-3.531-.809c-1.663,0-2.472.782-2.472,1.64,0,1.086.932,1.568,3.154,2.4,3,1.113,4.39,2.677,4.39,5.081,0,2.854-2.168,5.28-6.816,5.28a11.074,11.074,0,0,1-4.817-1.059Z" fill="#009ace"/>
      <path id="Path_1173" data-name="Path 1173" d="M50.382,38.754a3.072,3.072,0,0,0,1.4.359c.577,0,.882-.25.882-.627s-.264-.568-.909-.809c-.909-.345-1.531-.877-1.531-1.722,0-.991.8-1.74,2.1-1.74a3.136,3.136,0,0,1,1.418.291l-.282,1.05a2.513,2.513,0,0,0-1.154-.277c-.545,0-.809.268-.809.559,0,.368.3.532,1.032.818.982.377,1.436.909,1.436,1.731,0,.972-.709,1.818-2.236,1.818a3.5,3.5,0,0,1-1.577-.364Z" fill="#fff"/>
      <path id="Path_1174" data-name="Path 1174" d="M61.848,37.145c0,1.909-1.1,3.054-2.727,3.054a2.671,2.671,0,0,1-2.613-2.958A2.765,2.765,0,0,1,59.235,34.2,2.664,2.664,0,0,1,61.848,37.145Zm-4.017.068c0,1.145.509,1.945,1.363,1.945s1.336-.845,1.336-1.972c0-1.05-.454-1.945-1.336-1.945s-1.363.845-1.363,1.972Z" fill="#fff"/>
      <path id="Path_1175" data-name="Path 1175" d="M64.642,34.3h1.25V39H68.1v1.1H64.638Z" fill="#fff"/>
      <path id="Path_1176" data-name="Path 1176" d="M71.8,34.3v3.331c0,1.009.373,1.513,1,1.513s1.022-.482,1.022-1.513V34.3h1.254v3.254c0,1.79-.863,2.64-2.318,2.64s-2.218-.818-2.218-2.658V34.3Z" fill="#fff"/>
      <path id="Path_1177" data-name="Path 1177" d="M79.225,35.4H77.707V34.3h4.272v1.1h-1.5v4.7H79.225Z" fill="#fff"/>
      <path id="Path_1178" data-name="Path 1178" d="M85.887,34.3v5.8H84.633V34.3Z" fill="#fff"/>
      <path id="Path_1179" data-name="Path 1179" d="M94.026,37.145c0,1.909-1.1,3.054-2.727,3.054a2.671,2.671,0,0,1-2.613-2.958A2.765,2.765,0,0,1,91.413,34.2,2.651,2.651,0,0,1,94.026,37.145Zm-4.017.068c0,1.145.509,1.945,1.363,1.945s1.331-.845,1.331-1.972c0-1.05-.454-1.945-1.336-1.945s-1.354.845-1.354,1.972Z" fill="#fff"/>
      <path id="Path_1180" data-name="Path 1180" d="M96.793,40.1V34.3h1.468l1.154,2.127a18.71,18.71,0,0,1,.909,1.986h0c-.073-.763-.1-1.55-.1-2.427V34.3h1.154v5.8h-1.318l-1.186-2.236a20.034,20.034,0,0,1-.963-2.049h-.032c.041.777.059,1.59.059,2.54V40.1Z" fill="#fff"/>
      <path id="Path_1181" data-name="Path 1181" d="M104.519,38.754a3.072,3.072,0,0,0,1.4.359c.577,0,.882-.25.882-.627s-.264-.568-.909-.809c-.909-.345-1.531-.877-1.531-1.722,0-.991.8-1.74,2.1-1.74a3.136,3.136,0,0,1,1.418.291l-.282,1.05a2.513,2.513,0,0,0-1.154-.277c-.545,0-.809.268-.809.559,0,.368.3.532,1.032.818.982.377,1.436.909,1.436,1.731,0,.972-.709,1.818-2.236,1.818a3.5,3.5,0,0,1-1.577-.364Z" fill="#fff"/>
      <path id="Path_1182" data-name="Path 1182" d="M115.807,38.626l-.382,1.477h-1.3l1.69-5.8h1.65l1.731,5.8h-1.363l-.441-1.477Zm1.409-.982-.345-1.231c-.1-.345-.2-.773-.282-1.118h0c-.082.345-.164.782-.254,1.118L116,37.645Z" fill="#fff"/>
      <path id="Path_1183" data-name="Path 1183" d="M121.887,40.1V34.3h1.468l1.159,2.127a18.716,18.716,0,0,1,.909,1.986h0c-.073-.763-.1-1.55-.1-2.427V34.3h1.154v5.8h-1.318l-1.186-2.236a20.081,20.081,0,0,1-.963-2.049h-.032c.041.777.059,1.59.059,2.54V40.1Z" fill="#fff"/>
      <path id="Path_1184" data-name="Path 1184" d="M129.539,34.391a10.611,10.611,0,0,1,1.69-.127,3.508,3.508,0,0,1,2.272.618,2.613,2.613,0,0,1,.941,2.186,3.031,3.031,0,0,1-.909,2.349,3.894,3.894,0,0,1-2.572.75,10.333,10.333,0,0,1-1.427-.086Zm1.254,4.726a2.272,2.272,0,0,0,.454.027,1.774,1.774,0,0,0,1.895-2.031,1.641,1.641,0,0,0-1.763-1.84,2.568,2.568,0,0,0-.568.05Z" fill="#fff"/>
      <path id="Path_1185" data-name="Path 1185" d="M141.632,35.4h-1.5V34.3H144.4v1.1h-1.518v4.7h-1.254Z" fill="#fff"/>
      <path id="Path_1186" data-name="Path 1186" d="M150.339,37.649h-2.045v1.363h2.272V40.09H147.03V34.3h3.422v1.077h-2.168v1.2h2.045Z" fill="#fff"/>
      <path id="Path_1187" data-name="Path 1187" d="M157.473,39.949a3.554,3.554,0,0,1-1.418.25,2.7,2.7,0,0,1-2.908-2.908,2.886,2.886,0,0,1,3.036-3.072,3.031,3.031,0,0,1,1.363.259l-.264,1.032a2.554,2.554,0,0,0-1.054-.214,1.706,1.706,0,0,0-1.763,1.918,1.7,1.7,0,0,0,1.772,1.895,2.881,2.881,0,0,0,1.054-.191Z" fill="#fff"/>
      <path id="Path_1188" data-name="Path 1188" d="M161.531,34.3v2.227h2.063V34.3h1.254v5.8h-1.254V37.677h-2.068V40.1h-1.25V34.3Z" fill="#fff"/>
      <path id="Path_1189" data-name="Path 1189" d="M167.911,40.1V34.3h1.468l1.154,2.127a18.714,18.714,0,0,1,.909,1.986h0c-.073-.763-.1-1.55-.1-2.427V34.3H172.5v5.8h-1.318l-1.186-2.236a20.081,20.081,0,0,1-.945-2.049h-.032c.041.777.059,1.59.059,2.54V40.1Z" fill="#fff"/>
      <path id="Path_1190" data-name="Path 1190" d="M180.654,37.145c0,1.909-1.1,3.054-2.727,3.054a2.671,2.671,0,0,1-2.613-2.958,2.765,2.765,0,0,1,2.727-3.036A2.651,2.651,0,0,1,180.654,37.145Zm-4.017.068c0,1.145.514,1.945,1.363,1.945s1.336-.845,1.336-1.972c0-1.05-.454-1.945-1.336-1.945S176.636,36.086,176.636,37.213Z" fill="#fff"/>
      <path id="Path_1191" data-name="Path 1191" d="M183.453,34.3h1.254V39h2.209v1.1h-3.463Z" fill="#fff"/>
      <path id="Path_1192" data-name="Path 1192" d="M194.391,37.145c0,1.909-1.1,3.054-2.727,3.054a2.678,2.678,0,0,1-2.622-2.958,2.765,2.765,0,0,1,2.727-3.036A2.653,2.653,0,0,1,194.391,37.145Zm-4.017.068c0,1.145.514,1.945,1.363,1.945s1.336-.845,1.336-1.972c0-1.05-.454-1.945-1.336-1.945s-1.359.845-1.359,1.972Z" fill="#fff"/>
      <path id="Path_1193" data-name="Path 1193" d="M201.825,39.835a5.989,5.989,0,0,1-1.854.327,3.049,3.049,0,0,1-2.272-.773,2.977,2.977,0,0,1-.773-2.127,2.926,2.926,0,0,1,3.181-3.031,3.872,3.872,0,0,1,1.541.277l-.264,1.059a2.8,2.8,0,0,0-1.286-.25,1.893,1.893,0,0,0-.091,3.781,1.849,1.849,0,0,0,.609-.077V37.808h-.859V36.781h2.068Z" fill="#fff"/>
      <path id="Path_1194" data-name="Path 1194" d="M206.033,34.3v5.8h-1.254V34.3Z" fill="#fff"/>
      <path id="Path_1195" data-name="Path 1195" d="M212.391,37.649h-2.045v1.363h2.272V40.09h-3.535V34.3H212.5v1.077h-2.168v1.2h2.045Z" fill="#fff"/>
      <path id="Path_1196" data-name="Path 1196" d="M215.49,38.754a3.072,3.072,0,0,0,1.4.359c.577,0,.882-.25.882-.627s-.264-.568-.932-.809c-.909-.345-1.531-.877-1.531-1.722,0-.991.8-1.74,2.1-1.74a3.14,3.14,0,0,1,1.418.291l-.282,1.05a2.513,2.513,0,0,0-1.154-.277c-.545,0-.809.268-.809.559,0,.368.3.532,1.032.818.982.377,1.436.909,1.436,1.731,0,.972-.709,1.818-2.236,1.818a3.494,3.494,0,0,1-1.577-.364Z" fill="#fff"/>
    </g>
  </g>
</svg>
